<?xml version="1.0" encoding="UTF-8" standalone="no"?>
<svg
   xmlns:dc="http://purl.org/dc/elements/1.1/"
   xmlns:cc="http://creativecommons.org/ns#"
   xmlns:rdf="http://www.w3.org/1999/02/22-rdf-syntax-ns#"
   xmlns:svg="http://www.w3.org/2000/svg"
   xmlns="http://www.w3.org/2000/svg"
   xmlns:sodipodi="http://sodipodi.sourceforge.net/DTD/sodipodi-0.dtd"
   xmlns:inkscape="http://www.inkscape.org/namespaces/inkscape"
   width="226mm"
   height="162mm"
   viewBox="-4 -158 225.99715 161.99795"
   version="1.1"
   id="svg6"
   sodipodi:docname="led_bed.scad_2d.svg"
   inkscape:version="0.92.3 (2405546, 2018-03-11)">
  <metadata
     id="metadata12">
    <rdf:RDF>
      <cc:Work
         rdf:about="">
        <dc:format>image/svg+xml</dc:format>
        <dc:type
           rdf:resource="http://purl.org/dc/dcmitype/StillImage" />
        <dc:title>OpenSCAD Model</dc:title>
      </cc:Work>
    </rdf:RDF>
  </metadata>
  <defs
     id="defs10" />
  <sodipodi:namedview
     pagecolor="#ffffff"
     bordercolor="#666666"
     borderopacity="1"
     objecttolerance="10"
     gridtolerance="10"
     guidetolerance="10"
     inkscape:pageopacity="0"
     inkscape:pageshadow="2"
     inkscape:window-width="2560"
     inkscape:window-height="1373"
     id="namedview8"
     showgrid="false"
     inkscape:measure-start="1007.93,107.668"
     inkscape:measure-end="853.806,486.046"
     scale-x="0.26458"
     inkscape:document-units="mm"
     inkscape:zoom="1.0901957"
     inkscape:cx="383.61262"
     inkscape:cy="321.39416"
     inkscape:window-x="-9"
     inkscape:window-y="-9"
     inkscape:window-maximized="1"
     inkscape:current-layer="svg6" />
  <title
     id="title2">OpenSCAD Model</title>
  <path
     d="m 22.3,-55.3 h 1.15 v 3.1 h 1.15 v -3.1 h 1.15 v 3.1 h 1.15 v -101.9 h -1.15 v -3.1 H 24.6 v 3.1 h -1.15 v -3.1 H 22.3 v 3.1 h -1.15 v -3.1 H 16.9 v 3.1 H 20 v 16.467 h -3.1 v 16.466 H 20 v 16.467 h -3.1 v 16.4667 H 20 v 16.4666 H 16.9 V -55.3 h 4.25 v 3.1 h 1.15 z m 199.6,-69.3 h -50 v 13.125 h -3.1 v 13.125 h 3.1 v 13.125 h -3.1 V -72.1 h 3.1 v 13.125 h -3.1 v 13.125 h 3.1 v 13.125 h -3.1 V -19.6 h 53.1 z m -177.3,22.5 v 3.1 h -1.15 v -3.1 H 42.3 v 3.1 h -1.15 v -3.1 H 40 v 19.5667 h -3.1 v 16.4666 H 40 V -49.6 h -3.1 v 16.4667 H 40 v 16.4666 H 36.9 V -0.199997 H 40 V 2.89999 h 1.15 V -0.199997 H 42.3 V 2.89999 h 1.15 V -0.199997 H 44.6 V 2.89999 h 1.15 V -0.199997 H 46.9 V -99 h -1.15 v -3.1 z M 25.75,2.99998 H 26.9 V -2.09999 H 22 V -42.1 h 4.9 V -47 h -1.15 v 3.1 H 24.6 V -47 h -1.15 v 3.1 H 22.3 V -47 h -1.15 v 3.1 H 20 v 7.3 h -3.1 v 7.3 H 20 v 7.3 h -3.1 v 7.3 H 20 v 7.30001 H 16.9 V 2.99998 H 20 v -3.0999708 h 1.15 V 2.99998 h 1.15 v -3.0999708 h 1.15 V 2.99998 h 1.15 v -3.0999708 h 1.15 z M 0,0 h 1.14999 v 3.09999 h 1.15 V 0 H 3.45 V 3.09999 H 4.59999 V 0 H 5.75 V 3.09999 H 6.89999 V -43.8 H 5.75 v -3.1 H 4.59999 v 3.1 H 3.45 v -3.1 H 2.29999 v 3.1 h -1.15 v -3.1 h -4.24998 v 3.1 H 0 v 7.3 h -3.09999 v 7.3 H 0 v 7.3 h -3.09999 v 7.3 H 0 v 7.30001 H -3.09999 V 3.09999 H 0 Z M 76.4667,-47.2 H 56.9 v 7.3 H 60 v 7.3 h -3.1 v 7.3 H 60 v 7.3 h -3.1 v 7.3 H 60 v 7.30001 h 16.4667 v 3.100002 H 92.9333 V -3.39999 H 109.4 v 3.100002 h 16.467 V -3.39999 h 16.466 v 3.100002 H 158.8 V -10.7 h 3.1 V -18 h -3.1 v -7.3 h 3.1 v -7.3 h -3.1 v -7.3 h 3.1 v -7.3 h -3.1 v -3.1 h 3.1 v -100 h -13.125 v -3.1 H 135.65 v 3.1 h -13.125 v -3.1 H 109.4 v 3.1 H 96.275 v -3.1 H 83.15 v 3.1 H 70.025 v -3.1 H 56.9 v 103.1 h 19.5667 z m 65.8663,0 h -16.466 v -3.1 h 16.466 z m -32.933,0 H 92.9333 v -3.1 H 109.4 Z"
     id="path4"
     inkscape:connector-curvature="0"
     style="fill:none;stroke:#ff0000;stroke-width:0.5;stroke-opacity:1" />
</svg>
